<mxfile host="app.diagrams.net" modified="2023-07-28T13:08:41.003Z" agent="Mozilla/5.0 (X11; Linux x86_64) AppleWebKit/537.36 (KHTML, like Gecko) Chrome/114.0.0.0 Safari/537.36" etag="H2m8LuQRJGOgaYaU1Qo7" version="21.6.5" type="github">
  <diagram name="Page-1" id="xRznutv9lLpQDjjXEBbJ">
    <mxGraphModel dx="1095" dy="1764" grid="1" gridSize="10" guides="1" tooltips="1" connect="1" arrows="1" fold="1" page="1" pageScale="1" pageWidth="827" pageHeight="1169" math="0" shadow="0">
      <root>
        <mxCell id="0" />
        <mxCell id="1" parent="0" />
        <mxCell id="i9ldFEE3pmpLfWPivPnd-41" value="" style="whiteSpace=wrap;html=1;aspect=fixed;" vertex="1" parent="1">
          <mxGeometry x="384" y="640" width="280" height="280" as="geometry" />
        </mxCell>
        <mxCell id="i9ldFEE3pmpLfWPivPnd-43" value="" style="whiteSpace=wrap;html=1;aspect=fixed;" vertex="1" parent="1">
          <mxGeometry x="100" y="1020" width="280" height="280" as="geometry" />
        </mxCell>
        <mxCell id="i9ldFEE3pmpLfWPivPnd-35" value="" style="verticalLabelPosition=bottom;verticalAlign=top;html=1;shape=mxgraph.basic.rect;fillColor2=none;strokeWidth=1;size=20;indent=5;dashed=1;fillColor=none;" vertex="1" parent="1">
          <mxGeometry x="20" y="555" width="670" height="415" as="geometry" />
        </mxCell>
        <mxCell id="i9ldFEE3pmpLfWPivPnd-29" value="" style="whiteSpace=wrap;html=1;verticalAlign=top;labelBackgroundColor=default;" vertex="1" parent="1">
          <mxGeometry x="707" y="240" width="320" height="160" as="geometry" />
        </mxCell>
        <mxCell id="i9ldFEE3pmpLfWPivPnd-21" value="" style="whiteSpace=wrap;html=1;aspect=fixed;fillColor=#dae8fc;strokeColor=#6c8ebf;" vertex="1" parent="1">
          <mxGeometry x="1100" y="-230" width="450" height="450" as="geometry" />
        </mxCell>
        <mxCell id="i9ldFEE3pmpLfWPivPnd-19" value="" style="whiteSpace=wrap;html=1;aspect=fixed;" vertex="1" parent="1">
          <mxGeometry x="50" y="640" width="280" height="280" as="geometry" />
        </mxCell>
        <mxCell id="i9ldFEE3pmpLfWPivPnd-75" style="edgeStyle=orthogonalEdgeStyle;rounded=0;orthogonalLoop=1;jettySize=auto;html=1;" edge="1" parent="1" source="i9ldFEE3pmpLfWPivPnd-1" target="i9ldFEE3pmpLfWPivPnd-12">
          <mxGeometry relative="1" as="geometry" />
        </mxCell>
        <mxCell id="i9ldFEE3pmpLfWPivPnd-1" value="SQL database" style="verticalLabelPosition=bottom;html=1;verticalAlign=top;align=center;strokeColor=none;fillColor=#00BEF2;shape=mxgraph.azure.sql_database;" vertex="1" parent="1">
          <mxGeometry x="247.25" y="1060" width="37.5" height="50" as="geometry" />
        </mxCell>
        <mxCell id="i9ldFEE3pmpLfWPivPnd-56" style="edgeStyle=orthogonalEdgeStyle;rounded=0;orthogonalLoop=1;jettySize=auto;html=1;" edge="1" parent="1" source="i9ldFEE3pmpLfWPivPnd-10" target="i9ldFEE3pmpLfWPivPnd-52">
          <mxGeometry relative="1" as="geometry" />
        </mxCell>
        <mxCell id="i9ldFEE3pmpLfWPivPnd-10" value="LB&amp;nbsp;" style="image;aspect=fixed;html=1;points=[];align=center;fontSize=12;image=img/lib/azure2/networking/Load_Balancers.svg;" vertex="1" parent="1">
          <mxGeometry x="160" y="660" width="40" height="40" as="geometry" />
        </mxCell>
        <mxCell id="i9ldFEE3pmpLfWPivPnd-30" value="" style="edgeStyle=orthogonalEdgeStyle;rounded=0;orthogonalLoop=1;jettySize=auto;html=1;" edge="1" parent="1" source="i9ldFEE3pmpLfWPivPnd-11" target="i9ldFEE3pmpLfWPivPnd-29">
          <mxGeometry relative="1" as="geometry" />
        </mxCell>
        <mxCell id="i9ldFEE3pmpLfWPivPnd-11" value="Vnet&lt;br&gt;" style="image;aspect=fixed;html=1;points=[];align=center;fontSize=12;image=img/lib/azure2/networking/Virtual_Networks.svg;" vertex="1" parent="1">
          <mxGeometry x="950" y="40" width="67" height="40" as="geometry" />
        </mxCell>
        <mxCell id="i9ldFEE3pmpLfWPivPnd-13" value="" style="image;aspect=fixed;html=1;points=[];align=center;fontSize=12;image=img/lib/azure2/compute/App_Services.svg;" vertex="1" parent="1">
          <mxGeometry x="600" y="176" width="64" height="64" as="geometry" />
        </mxCell>
        <mxCell id="i9ldFEE3pmpLfWPivPnd-14" value="&lt;font style=&quot;font-size: 14px;&quot;&gt;Azure Cloud&lt;/font&gt;" style="text;strokeColor=none;align=center;fillColor=none;html=1;verticalAlign=middle;whiteSpace=wrap;rounded=0;" vertex="1" parent="1">
          <mxGeometry x="740" y="22" width="160" height="60" as="geometry" />
        </mxCell>
        <mxCell id="i9ldFEE3pmpLfWPivPnd-20" value="On-Premise: East US" style="text;html=1;strokeColor=none;fillColor=none;align=center;verticalAlign=middle;whiteSpace=wrap;rounded=0;" vertex="1" parent="1">
          <mxGeometry x="50" y="980" width="210" height="50" as="geometry" />
        </mxCell>
        <mxCell id="i9ldFEE3pmpLfWPivPnd-51" style="edgeStyle=orthogonalEdgeStyle;rounded=0;orthogonalLoop=1;jettySize=auto;html=1;" edge="1" parent="1" source="i9ldFEE3pmpLfWPivPnd-23" target="i9ldFEE3pmpLfWPivPnd-10">
          <mxGeometry relative="1" as="geometry" />
        </mxCell>
        <mxCell id="i9ldFEE3pmpLfWPivPnd-23" value="WAF" style="image;aspect=fixed;html=1;points=[];align=center;fontSize=12;image=img/lib/azure2/networking/Web_Application_Firewall_Policies_WAF.svg;" vertex="1" parent="1">
          <mxGeometry x="110" y="465" width="42.54" height="42.54" as="geometry" />
        </mxCell>
        <mxCell id="i9ldFEE3pmpLfWPivPnd-24" value="Front-End" style="text;html=1;strokeColor=none;fillColor=none;align=center;verticalAlign=middle;whiteSpace=wrap;rounded=0;" vertex="1" parent="1">
          <mxGeometry x="200" y="610" width="60" height="30" as="geometry" />
        </mxCell>
        <mxCell id="i9ldFEE3pmpLfWPivPnd-50" style="edgeStyle=orthogonalEdgeStyle;rounded=0;orthogonalLoop=1;jettySize=auto;html=1;" edge="1" parent="1" source="i9ldFEE3pmpLfWPivPnd-25" target="i9ldFEE3pmpLfWPivPnd-23">
          <mxGeometry relative="1" as="geometry" />
        </mxCell>
        <mxCell id="i9ldFEE3pmpLfWPivPnd-25" value="Front Door&lt;br&gt;" style="image;aspect=fixed;html=1;points=[];align=center;fontSize=12;image=img/lib/azure2/networking/Front_Doors.svg;" vertex="1" parent="1">
          <mxGeometry x="27.50999999999999" y="414" width="43.07" height="38" as="geometry" />
        </mxCell>
        <mxCell id="i9ldFEE3pmpLfWPivPnd-77" style="edgeStyle=orthogonalEdgeStyle;rounded=0;orthogonalLoop=1;jettySize=auto;html=1;" edge="1" parent="1" source="i9ldFEE3pmpLfWPivPnd-26" target="i9ldFEE3pmpLfWPivPnd-25">
          <mxGeometry relative="1" as="geometry" />
        </mxCell>
        <mxCell id="i9ldFEE3pmpLfWPivPnd-26" value="Customers&lt;br&gt;" style="image;aspect=fixed;html=1;points=[];align=center;fontSize=12;image=img/lib/azure2/management_governance/My_Customers.svg;" vertex="1" parent="1">
          <mxGeometry x="107.50999999999999" y="330" width="87.49" height="71" as="geometry" />
        </mxCell>
        <mxCell id="i9ldFEE3pmpLfWPivPnd-31" value="LB&amp;nbsp;" style="image;aspect=fixed;html=1;points=[];align=center;fontSize=12;image=img/lib/azure2/networking/Load_Balancers.svg;" vertex="1" parent="1">
          <mxGeometry x="600" y="400" width="72" height="72" as="geometry" />
        </mxCell>
        <mxCell id="i9ldFEE3pmpLfWPivPnd-37" value="East US Region - Azure Cloud" style="text;strokeColor=none;align=center;fillColor=none;html=1;verticalAlign=middle;whiteSpace=wrap;rounded=0;" vertex="1" parent="1">
          <mxGeometry x="320" y="525" width="190" height="30" as="geometry" />
        </mxCell>
        <mxCell id="i9ldFEE3pmpLfWPivPnd-42" value="Middle-End" style="text;html=1;strokeColor=none;fillColor=none;align=center;verticalAlign=middle;whiteSpace=wrap;rounded=0;" vertex="1" parent="1">
          <mxGeometry x="570" y="610" width="80" height="30" as="geometry" />
        </mxCell>
        <mxCell id="i9ldFEE3pmpLfWPivPnd-89" value="" style="edgeStyle=orthogonalEdgeStyle;rounded=0;orthogonalLoop=1;jettySize=auto;html=1;" edge="1" parent="1" source="i9ldFEE3pmpLfWPivPnd-44" target="i9ldFEE3pmpLfWPivPnd-62">
          <mxGeometry relative="1" as="geometry" />
        </mxCell>
        <mxCell id="i9ldFEE3pmpLfWPivPnd-44" value="Beck-End" style="text;html=1;strokeColor=none;fillColor=none;align=center;verticalAlign=middle;whiteSpace=wrap;rounded=0;" vertex="1" parent="1">
          <mxGeometry x="223.07" y="990" width="80" height="30" as="geometry" />
        </mxCell>
        <mxCell id="i9ldFEE3pmpLfWPivPnd-2" value="IIS Webserver" style="image;aspect=fixed;perimeter=ellipsePerimeter;html=1;align=center;shadow=0;dashed=0;spacingTop=3;image=img/lib/active_directory/web_server.svg;" vertex="1" parent="1">
          <mxGeometry x="70.03999999999996" y="110" width="69.96" height="87.45" as="geometry" />
        </mxCell>
        <mxCell id="i9ldFEE3pmpLfWPivPnd-57" style="edgeStyle=orthogonalEdgeStyle;rounded=0;orthogonalLoop=1;jettySize=auto;html=1;" edge="1" parent="1" source="i9ldFEE3pmpLfWPivPnd-52" target="i9ldFEE3pmpLfWPivPnd-55">
          <mxGeometry relative="1" as="geometry" />
        </mxCell>
        <mxCell id="i9ldFEE3pmpLfWPivPnd-64" style="edgeStyle=orthogonalEdgeStyle;rounded=0;orthogonalLoop=1;jettySize=auto;html=1;entryX=0.558;entryY=0.462;entryDx=0;entryDy=0;entryPerimeter=0;" edge="1" parent="1" source="i9ldFEE3pmpLfWPivPnd-90" target="i9ldFEE3pmpLfWPivPnd-1">
          <mxGeometry relative="1" as="geometry" />
        </mxCell>
        <mxCell id="i9ldFEE3pmpLfWPivPnd-92" style="edgeStyle=orthogonalEdgeStyle;rounded=0;orthogonalLoop=1;jettySize=auto;html=1;" edge="1" parent="1" source="i9ldFEE3pmpLfWPivPnd-52" target="i9ldFEE3pmpLfWPivPnd-12">
          <mxGeometry relative="1" as="geometry" />
        </mxCell>
        <mxCell id="i9ldFEE3pmpLfWPivPnd-52" value="Azure App Services&lt;br&gt;.NET managed service" style="image;aspect=fixed;html=1;points=[];align=center;fontSize=12;image=img/lib/azure2/app_services/App_Service_Environments.svg;" vertex="1" parent="1">
          <mxGeometry x="224" y="720" width="64" height="64" as="geometry" />
        </mxCell>
        <mxCell id="i9ldFEE3pmpLfWPivPnd-69" style="edgeStyle=orthogonalEdgeStyle;rounded=0;orthogonalLoop=1;jettySize=auto;html=1;entryX=0.398;entryY=0.476;entryDx=0;entryDy=0;entryPerimeter=0;" edge="1" parent="1" source="i9ldFEE3pmpLfWPivPnd-12" target="i9ldFEE3pmpLfWPivPnd-65">
          <mxGeometry relative="1" as="geometry" />
        </mxCell>
        <mxCell id="i9ldFEE3pmpLfWPivPnd-12" value="Function App&amp;nbsp;&lt;br&gt;Customer support&lt;br&gt;" style="image;aspect=fixed;html=1;points=[];align=center;fontSize=12;image=img/lib/azure2/compute/Function_Apps.svg;" vertex="1" parent="1">
          <mxGeometry x="408.5" y="800" width="68" height="60" as="geometry" />
        </mxCell>
        <mxCell id="i9ldFEE3pmpLfWPivPnd-55" value="Scale up/out" style="image;aspect=fixed;html=1;points=[];align=center;fontSize=12;image=img/lib/azure2/general/Scale.svg;" vertex="1" parent="1">
          <mxGeometry x="80" y="762" width="60" height="60" as="geometry" />
        </mxCell>
        <mxCell id="i9ldFEE3pmpLfWPivPnd-61" value="Rule-based scaling" style="text;strokeColor=none;align=center;fillColor=none;html=1;verticalAlign=middle;whiteSpace=wrap;rounded=0;" vertex="1" parent="1">
          <mxGeometry x="25" y="824" width="170" height="60" as="geometry" />
        </mxCell>
        <mxCell id="i9ldFEE3pmpLfWPivPnd-62" value="the platform manages the scale out and in based on HTTP traffic." style="text;strokeColor=none;align=center;fillColor=none;html=1;verticalAlign=middle;whiteSpace=wrap;rounded=0;" vertex="1" parent="1">
          <mxGeometry x="56" y="860" width="180" height="50" as="geometry" />
        </mxCell>
        <mxCell id="i9ldFEE3pmpLfWPivPnd-65" value="Push Notification&amp;nbsp;&lt;br&gt;to customer&lt;br&gt;" style="verticalLabelPosition=bottom;html=1;verticalAlign=top;align=center;strokeColor=none;fillColor=#00BEF2;shape=mxgraph.azure.message;pointerEvents=1;" vertex="1" parent="1">
          <mxGeometry x="480" y="720" width="50" height="37.5" as="geometry" />
        </mxCell>
        <mxCell id="i9ldFEE3pmpLfWPivPnd-70" value="Azure Storage" style="image;aspect=fixed;html=1;points=[];align=center;fontSize=12;image=img/lib/azure2/storage/Storage_Accounts.svg;" vertex="1" parent="1">
          <mxGeometry x="540" y="304" width="65" height="52" as="geometry" />
        </mxCell>
        <mxCell id="i9ldFEE3pmpLfWPivPnd-73" value="Logic App" style="image;aspect=fixed;html=1;points=[];align=center;fontSize=12;image=img/lib/azure2/integration/Logic_Apps.svg;" vertex="1" parent="1">
          <mxGeometry x="820" y="540" width="67" height="52" as="geometry" />
        </mxCell>
        <mxCell id="i9ldFEE3pmpLfWPivPnd-76" value="Log Analytic Workspace" style="image;aspect=fixed;html=1;points=[];align=center;fontSize=12;image=img/lib/azure2/management_governance/Log_Analytics_Workspaces.svg;" vertex="1" parent="1">
          <mxGeometry x="880" y="670" width="64" height="64" as="geometry" />
        </mxCell>
        <mxCell id="i9ldFEE3pmpLfWPivPnd-81" value="Data - Tier" style="text;strokeColor=none;align=center;fillColor=none;html=1;verticalAlign=middle;whiteSpace=wrap;rounded=0;" vertex="1" parent="1">
          <mxGeometry x="303.07" y="990" width="60" height="30" as="geometry" />
        </mxCell>
        <mxCell id="i9ldFEE3pmpLfWPivPnd-82" value="Presentation&amp;nbsp; - Tier" style="text;strokeColor=none;align=center;fillColor=none;html=1;verticalAlign=middle;whiteSpace=wrap;rounded=0;" vertex="1" parent="1">
          <mxGeometry x="70.03999999999999" y="610" width="105" height="30" as="geometry" />
        </mxCell>
        <mxCell id="i9ldFEE3pmpLfWPivPnd-83" value="Business Logic&amp;nbsp; - Tier" style="text;strokeColor=none;align=center;fillColor=none;html=1;verticalAlign=middle;whiteSpace=wrap;rounded=0;" vertex="1" parent="1">
          <mxGeometry x="405" y="610" width="125" height="30" as="geometry" />
        </mxCell>
        <mxCell id="i9ldFEE3pmpLfWPivPnd-86" value="WAF" style="image;aspect=fixed;html=1;points=[];align=center;fontSize=12;image=img/lib/azure2/networking/Web_Application_Firewall_Policies_WAF.svg;" vertex="1" parent="1">
          <mxGeometry x="422.5" y="1010" width="42.54" height="42.54" as="geometry" />
        </mxCell>
        <mxCell id="i9ldFEE3pmpLfWPivPnd-91" value="" style="edgeStyle=orthogonalEdgeStyle;rounded=0;orthogonalLoop=1;jettySize=auto;html=1;entryX=0.558;entryY=0.462;entryDx=0;entryDy=0;entryPerimeter=0;" edge="1" parent="1" source="i9ldFEE3pmpLfWPivPnd-52" target="i9ldFEE3pmpLfWPivPnd-90">
          <mxGeometry relative="1" as="geometry">
            <mxPoint x="268" y="824" as="sourcePoint" />
            <mxPoint x="268" y="1083" as="targetPoint" />
          </mxGeometry>
        </mxCell>
        <mxCell id="i9ldFEE3pmpLfWPivPnd-90" value="LB&amp;nbsp;" style="image;aspect=fixed;html=1;points=[];align=center;fontSize=12;image=img/lib/azure2/networking/Load_Balancers.svg;" vertex="1" parent="1">
          <mxGeometry x="490" y="1120" width="40" height="40" as="geometry" />
        </mxCell>
      </root>
    </mxGraphModel>
  </diagram>
</mxfile>
